<?xml version="1.0" encoding="utf-8"?>
<!-- Generator: Adobe Illustrator 19.0.0, SVG Export Plug-In . SVG Version: 6.00 Build 0)  -->
<svg version="1.1" id="Layer_1" xmlns="http://www.w3.org/2000/svg" xmlns:xlink="http://www.w3.org/1999/xlink" x="0px"
	y="0px" viewBox="314 -194 660 420" style="enable-background:new 314 -194 660 420;" xml:space="preserve">
	<style type="text/css">
		.st0 {
			fill: #FFD164;
		}

		.st1 {
			fill: #EABC57;
		}

		.st2 {
			fill: #FFFFFF;
		}

		.st3 {
			fill: #D7D6D6;
		}

		.st5 {
			fill: #E8BB9C;
		}

		.st6 {
			fill: #D9A687;
		}

		.st7 {
			fill: none;
		}

		.st8 {
			fill: #BA886C;
		}

		.st9 {
			opacity: 0.65;
			fill: #CC885A;
			enable-background: new;
		}

		.st10 {
			fill: #CC885A;
		}

		.st11 {
			fill: #EFB289;
		}

		.st12 {
			fill: #AD6C3E;
		}

		.st13 {
			fill: #7C411B;
		}

		.st14 {
			fill: #554A36;
		}

		.st15 {
			fill: #474033;
		}

		.st16 {
			fill: #3F341E;
		}

		.st17 {
			fill: #252011;
		}

		.st18 {
			fill: #4C3214;
		}

		.st19 {
			fill: #593D18;
		}

		.st20 {
			fill: #71361D;
		}

		.st21 {
			fill: #8F4D33;
		}

		.st22 {
			fill: #9E5D41;
		}

		.st23 {
			fill: none;
			stroke: #FFFFFF;
			stroke-width: 6;
			stroke-miterlimit: 10;
		}

		.st24 {
			opacity: 0.1;
			fill: none;
			stroke: #010101;
			stroke-width: 6;
			stroke-miterlimit: 10;
			enable-background: new;
		}

		.st25 {
			fill: #70CFF0;
		}

		.st26 {
			fill: none;
			stroke: #70CFF0;
			stroke-width: 1.5991;
		}

		.st27 {
			opacity: 0.1;
			fill: #010101;
			enable-background: new;
		}

		.st28 {
			fill: #3E331D;
		}

		.st29 {
			fill: #F9FAC0;
		}
	</style>
	<g id="XMLID_4_">
		<path id="XMLID_246_" class="st0" d="M916.9,183c7.3-25.2,11.3-51.9,11.3-79.6C928.2-53.5,801-180.8,644-180.8
		S359.8-53.5,359.8,103.4c0,27.6,4,54.3,11.3,79.6H916.9z" />
		<g id="XMLID_33_">
			<path id="XMLID_221_" class="st0" d="M360.7,189.4c0,0-0.5-1.7-1.3-4.8c-0.4-1.5-0.8-3.4-1.4-5.6c-0.5-2.2-1.1-4.6-1.6-7.2
			c-0.6-2.7-1.1-5.5-1.7-8.6c-0.6-3.1-1.1-6.3-1.6-9.6c-0.5-3.4-0.9-6.8-1.3-10.4c-0.4-3.5-0.7-7.1-1-10.7
			c-0.5-7.2-0.8-14.4-0.8-21.2c0-3.4,0-6.7,0.1-9.8c0.1-3.1,0.2-6,0.4-8.7c0.3-5.4,0.7-9.9,1.1-13s0.6-4.9,0.6-4.9s-0.2,1.8-0.4,4.9
			c-0.2,3.1-0.5,7.6-0.7,13c-0.1,2.7-0.2,5.6-0.2,8.7s0,6.4,0.1,9.7c0.2,6.7,0.6,13.9,1.3,21.1c0.4,3.6,0.8,7.1,1.3,10.6
			s1,6.9,1.6,10.3c0.6,3.3,1.2,6.5,1.8,9.5c0.6,3,1.3,5.9,1.9,8.5s1.2,5,1.8,7.1c0.6,2.1,1.1,3.9,1.5,5.4c0.9,3,1.4,4.8,1.4,4.8
			L360.7,189.4z" />
		</g>
		<g id="XMLID_90_">
			<path id="XMLID_219_" class="st0" d="M507.9-167.4c0,0-0.9,0.5-2.5,1.4s-4,2.3-7,3.9c-1.5,0.9-3.2,1.7-5,2.8
			c-1.8,1.1-3.7,2.3-5.7,3.6s-4.2,2.6-6.5,4c-2.2,1.5-4.6,3.1-7,4.8c-1.2,0.8-2.5,1.7-3.7,2.6c-1.3,0.9-2.6,1.7-3.8,2.7
			c-2.5,1.9-5.2,3.9-7.9,5.9c-1.3,1-2.7,2-4.1,3.1c-1.3,1.1-2.7,2.2-4,3.4c-2.7,2.3-5.6,4.5-8.3,7s-5.5,5-8.3,7.6
			c-0.7,0.6-1.4,1.3-2.1,1.9c-0.7,0.6-1.4,1.3-2,2c-1.4,1.4-2.7,2.7-4.1,4.1c-2.7,2.7-5.6,5.4-8.1,8.4c-2.6,2.9-5.3,5.8-7.9,8.7
			c-2.5,3-5,6.1-7.5,9.1l-1.9,2.3c-0.6,0.7-1.2,1.6-1.8,2.3c-1.2,1.6-2.3,3.1-3.5,4.7c-4.8,6.1-8.9,12.5-13.1,18.6
			c-1.9,3.1-3.8,6.2-5.7,9.3c-0.9,1.5-1.9,3-2.8,4.5c-0.8,1.5-1.7,3-2.5,4.5c-1.6,3-3.2,5.8-4.8,8.6c-1.5,2.8-2.8,5.6-4.1,8.3
			c-1.3,2.7-2.6,5.2-3.7,7.6c-1.1,2.5-2.1,4.8-3.1,7s-1.9,4.3-2.7,6.2c-0.8,1.9-1.4,3.7-2.1,5.3c-1.2,3.2-2.2,5.8-2.9,7.5
			c-0.7,1.7-1,2.7-1,2.7s0.3-0.9,0.8-2.7s1.3-4.4,2.4-7.7c0.5-1.6,1.1-3.5,1.8-5.5c0.7-2,1.5-4.1,2.4-6.3c0.8-2.3,1.7-4.7,2.7-7.2
			c0.4-1.3,1.1-2.5,1.6-3.8c0.6-1.3,1.2-2.6,1.8-4c1.2-2.7,2.4-5.6,3.8-8.5c1.5-2.9,3-5.8,4.5-8.9c0.8-1.5,1.6-3.1,2.4-4.6
			c0.9-1.5,1.8-3.1,2.7-4.6c1.8-3.1,3.6-6.3,5.6-9.5c2-3.1,4.1-6.3,6.2-9.5c1.1-1.6,2.1-3.3,3.2-4.8c1.2-1.6,2.3-3.1,3.5-4.7
			c1.2-1.6,2.3-3.2,3.5-4.7c0.6-0.8,1.2-1.6,1.8-2.4l1.9-2.3c2.5-3.1,5-6.1,7.6-9.2c2.7-2.9,5.4-5.9,8.1-8.8c2.6-3,5.5-5.7,8.3-8.5
			c5.5-5.6,11.4-10.6,17-15.5c1.4-1.2,2.9-2.3,4.3-3.5c1.4-1.1,2.9-2.3,4.3-3.4c1.4-1.1,2.8-2.2,4.2-3.3c1.4-1.1,2.8-2,4.2-3
			c2.8-2,5.5-3.9,8.1-5.7c1.3-1,2.7-1.7,4-2.6c1.3-0.8,2.6-1.6,3.9-2.4c2.5-1.6,4.9-3.1,7.3-4.5c2.4-1.3,4.6-2.5,6.8-3.7
			c2.1-1.2,4.1-2.2,5.9-3.2s3.6-1.8,5.2-2.5c3.1-1.5,5.6-2.6,7.3-3.4C507-167,507.9-167.4,507.9-167.4z" />
		</g>
		<g id="XMLID_85_">
			<path id="XMLID_217_" class="st0" d="M644.3-189.2c0,0-0.9,0.1-2.7,0.2c-1.8,0.1-4.3,0.2-7.6,0.4c-1.6,0.1-3.5,0.2-5.4,0.3
			c-2,0.2-4.1,0.4-6.4,0.7c-2.3,0.2-4.7,0.5-7.2,0.7c-0.6,0.1-1.3,0.1-1.9,0.2c-0.7,0.1-1.3,0.2-2,0.3c-1.3,0.2-2.7,0.4-4.1,0.6
			c-2.8,0.4-5.7,0.8-8.7,1.3c-3,0.6-6.1,1.2-9.2,1.8c-6.4,1.1-12.9,3-19.7,4.6c-0.9,0.2-1.7,0.4-2.5,0.7c-0.8,0.3-1.7,0.5-2.5,0.8
			c-1.7,0.5-3.4,1-5.2,1.6c-1.7,0.5-3.5,1.1-5.2,1.6c-1.7,0.6-3.4,1.2-5.2,1.8c-1.7,0.6-3.5,1.2-5.2,1.9c-1.7,0.6-3.5,1.2-5.2,2
			c-3.4,1.4-6.9,2.9-10.4,4.3c-1.7,0.7-3.4,1.5-5.1,2.3c-1.7,0.8-3.4,1.6-5.1,2.4c-1.7,0.8-3.4,1.6-5,2.4c-1.6,0.9-3.3,1.7-4.9,2.6
			c-1.6,0.9-3.2,1.7-4.9,2.6c-1.6,0.9-3.2,1.7-4.8,2.6c-3.1,1.9-6.2,3.7-9.2,5.5c-0.8,0.5-1.5,0.9-2.2,1.3c-0.7,0.5-1.4,1-2.2,1.4
			c-1.4,1-2.9,1.9-4.3,2.8c-2.8,1.9-5.6,3.6-8.2,5.6c-2.6,1.9-5.1,3.8-7.6,5.6c-0.6,0.4-1.2,0.9-1.8,1.3c-0.6,0.5-1.2,0.9-1.7,1.4
			c-1.1,0.9-2.3,1.8-3.4,2.7c-2.2,1.8-4.3,3.5-6.3,5.1c-1.9,1.7-3.8,3.3-5.5,4.8c-1.7,1.5-3.3,2.9-4.8,4.2c-1.5,1.3-2.7,2.6-3.9,3.8
			c-4.7,4.6-7.5,7.2-7.5,7.2s0.6-0.7,1.8-2s3-3.2,5.2-5.6c1.1-1.2,2.3-2.6,3.8-3.9c1.4-1.4,3-2.9,4.6-4.5c1.7-1.6,3.4-3.3,5.3-5.1
			c2-1.7,4-3.5,6.1-5.3c1.1-0.9,2.2-1.9,3.3-2.8c0.6-0.5,1.1-1,1.7-1.5c0.6-0.5,1.2-0.9,1.8-1.4c2.4-1.9,4.9-3.8,7.5-5.8
			c2.5-2,5.3-3.9,8.1-5.8c1.4-1,2.8-1.9,4.3-2.9c0.7-0.5,1.4-1,2.2-1.5c0.7-0.5,1.5-0.9,2.2-1.4c3-1.9,6.1-3.7,9.2-5.7
			c3.1-1.9,6.4-3.6,9.7-5.4c1.6-0.9,3.3-1.8,4.9-2.7c1.7-0.8,3.4-1.6,5.1-2.4s3.4-1.6,5.1-2.4c1.7-0.8,3.4-1.7,5.2-2.3
			c3.5-1.4,7-2.9,10.5-4.3c1.7-0.8,3.5-1.3,5.3-1.9c1.8-0.6,3.5-1.2,5.3-1.9c1.8-0.6,3.5-1.2,5.2-1.8c1.8-0.5,3.5-1,5.3-1.5
			s3.5-1,5.2-1.5c0.9-0.3,1.7-0.5,2.6-0.7c0.9-0.3,1.7-0.5,2.6-0.7c6.9-1.6,13.5-3.3,20-4.3c3.2-0.5,6.3-1.1,9.3-1.6
			c3-0.4,6-0.7,8.8-1c1.4-0.2,2.8-0.3,4.1-0.5c0.7-0.1,1.3-0.2,2-0.2c0.7,0,1.3-0.1,2-0.1c2.6-0.1,5-0.3,7.3-0.4
			c2.3-0.1,4.4-0.3,6.4-0.4c2,0,3.8,0,5.5,0c3.3,0,5.9,0,7.6,0C643.3-189.2,644.3-189.2,644.3-189.2z" />
		</g>
		<g id="XMLID_69_">
			<path id="XMLID_215_" class="st0" d="M938,104.5c0,0,0-0.8-0.1-2.3s-0.2-3.8-0.4-6.6c-0.1-1.4-0.1-3-0.2-4.7
			c-0.2-1.7-0.3-3.5-0.5-5.5s-0.4-4.1-0.6-6.3c-0.1-1.1-0.2-2.2-0.4-3.4c-0.2-1.2-0.3-2.3-0.5-3.5c-0.3-2.4-0.7-4.9-1-7.5
			c-0.4-2.6-0.9-5.2-1.4-8c-0.8-5.5-2.3-11.2-3.5-17.1c-0.7-3-1.5-5.9-2.3-8.9c-0.4-1.5-0.8-3-1.2-4.6c-0.5-1.5-0.9-3-1.4-4.5
			c-1-3-1.8-6.1-2.9-9.2c-1.1-3-2.2-6.1-3.2-9.1c-0.5-1.5-1.1-3-1.7-4.5c-0.6-1.5-1.2-3-1.8-4.5s-1.2-3-1.8-4.5
			c-0.7-1.5-1.3-2.9-2-4.4s-1.3-2.9-2-4.3c-0.7-1.4-1.2-2.9-2-4.3c-1.4-2.8-2.8-5.6-4.1-8.3c-0.3-0.7-0.7-1.4-1-2
			c-0.4-0.7-0.7-1.3-1.1-2c-0.7-1.3-1.4-2.6-2.1-3.9c-1.4-2.6-2.7-5.1-4.2-7.5c-2.9-4.8-5.5-9.3-8.3-13.3c-1.3-2-2.6-4-3.8-5.8
			c-1.3-1.8-2.5-3.5-3.6-5.1s-2.2-3.1-3.2-4.5s-2-2.6-2.9-3.7c-1.8-2.2-3.1-4-4-5.2s-1.4-1.9-1.4-1.9s0.5,0.6,1.5,1.8
			c1,1.1,2.5,2.8,4.4,5c0.9,1.1,2,2.2,3.1,3.6c1.1,1.3,2.2,2.8,3.5,4.4c1.2,1.6,2.5,3.2,3.9,5c1.3,1.8,2.7,3.7,4.1,5.7
			c0.7,1,1.4,2,2.2,3c0.4,0.5,0.7,1,1.1,1.6c0.4,0.5,0.7,1.1,1.1,1.6c1.4,2.2,2.9,4.5,4.4,6.9c1.6,2.3,2.9,4.9,4.4,7.4
			c0.7,1.3,1.5,2.6,2.2,3.9c0.4,0.7,0.8,1.3,1.1,2c0.4,0.7,0.7,1.3,1.1,2c1.4,2.7,2.8,5.5,4.3,8.3c1.4,2.8,2.7,5.7,4.1,8.7
			c0.7,1.5,1.3,2.9,2,4.4c0.6,1.5,1.2,3,1.8,4.5s1.2,3,1.8,4.5s1.2,3,1.8,4.6c1.1,3.1,2.2,6.2,3.2,9.2c1,3.1,1.9,6.2,2.8,9.3
			c0.5,1.5,0.9,3.1,1.4,4.6c0.4,1.5,0.8,3.1,1.1,4.6c0.7,3.1,1.5,6.1,2.2,9.1c1.2,6,2.4,11.8,3.1,17.4c0.4,2.8,0.8,5.5,1.2,8.1
			c0.3,2.6,0.5,5.2,0.7,7.6c0.1,1.2,0.2,2.4,0.3,3.6c0.1,0.6,0.1,1.2,0.2,1.7c0,0.6,0.1,1.1,0.1,1.7c0.1,2.2,0.2,4.3,0.3,6.3
			s0.2,3.8,0.2,5.6c0,1.7,0,3.3,0,4.7c0,2.8,0,5.1-0.1,6.6C938,103.7,938,104.5,938,104.5z" />
		</g>
		<g id="XMLID_230_">
			<path id="XMLID_107_" class="st1"
				d="M765.6-24.6L765.6-24.6c0,2.4,1.9,4.3,4.2,4.3h46.7c2.3,0,4.2-1.9,4.2-4.3l0,0H765.6z" />
			<rect id="XMLID_279_" x="765.2" y="-79.4" class="st2" width="52.7" height="52.8" />
			<path id="XMLID_278_" class="st2"
				d="M765.2-26.6L765.2-26.6c0,2.4,1.9,4.3,4.3,4.3h47.9c2.4,0,4.3-1.9,4.3-4.3l0,0H765.2z" />
			<g id="XMLID_272_">
				<path id="XMLID_277_" class="st3" d="M793.6-68.7H774c-1,0-1.8-0.8-1.8-1.8l0,0c0-1,0.8-1.8,1.8-1.8h19.6c1,0,1.8,0.8,1.8,1.8
				l0,0C795.5-69.6,794.6-68.7,793.6-68.7z" />
				<path id="XMLID_276_" class="st3" d="M786.1-54.4H774c-1,0-1.8-0.8-1.8-1.8l0,0c0-1,0.8-1.8,1.8-1.8h12.1c1,0,1.8,0.8,1.8,1.8
				l0,0C787.9-55.3,787.1-54.4,786.1-54.4z" />
				<path id="XMLID_275_" class="st3" d="M793.6-54.4h-1.5c-1,0-1.8-0.8-1.8-1.8l0,0c0-1,0.8-1.8,1.8-1.8h1.5c1,0,1.8,0.8,1.8,1.8
				l0,0C795.5-55.3,794.6-54.4,793.6-54.4z" />
				<path id="XMLID_274_" class="st3" d="M806.6-61.7H774c-1,0-1.8-0.8-1.8-1.8l0,0c0-1,0.8-1.8,1.8-1.8h32.6c1,0,1.8,0.8,1.8,1.8
				l0,0C808.4-62.6,807.6-61.7,806.6-61.7z" />
			</g>
		</g>
		<g id="XMLID_282_">
			<path id="XMLID_24_" class="st1" d="M427.7,20L427.7,20c0,2.5,2,4.5,4.4,4.5h49.6c2.4,0,4.4-2,4.4-4.5l0,0H427.7z" />
			<rect id="XMLID_22_" x="427.2" y="-38.2" class="st2" width="55.9" height="56.1" />
			<path id="XMLID_20_" class="st2"
				d="M427.2,17.9L427.2,17.9c0,2.5,2,4.5,4.5,4.5h50.9c2.5,0,4.5-2,4.5-4.5l0,0H427.2z" />
			<path fill="black" transform="translate(440 -26) scale(1.3)"
				d="M11.5725 0c-.1763 0-.3098.0013-.3584.0067-.0516.0053-.2159.021-.3636.0328-3.4088.3073-6.6017 2.1463-8.624 4.9728C1.1004 6.584.3802 8.3666.1082 10.255c-.0962.659-.108.8537-.108 1.7474s.012 1.0884.108 1.7476c.652 4.506 3.8591 8.2919 8.2087 9.6945.7789.2511 1.6.4223 2.5337.5255.3636.04 1.9354.04 2.299 0 1.6117-.1783 2.9772-.577 4.3237-1.2643.2065-.1056.2464-.1337.2183-.1573-.0188-.0139-.8987-1.1938-1.9543-2.62l-1.919-2.592-2.4047-3.5583c-1.3231-1.9564-2.4117-3.556-2.4211-3.556-.0094-.0026-.0187 1.5787-.0235 3.509-.0067 3.3802-.0093 3.5162-.0516 3.596-.061.115-.108.1618-.2064.2134-.075.0374-.1408.0445-.495.0445h-.406l-.1078-.068a.4383.4383 0 01-.1572-.1712l-.0493-.1056.0053-4.703.0067-4.7054.0726-.0915c.0376-.0493.1174-.1125.1736-.143.0962-.047.1338-.0517.5396-.0517.4787 0 .5584.0187.6827.1547.0353.0377 1.3373 1.9987 2.895 4.3608a10760.433 10760.433 0 004.7344 7.1706l1.9002 2.8782.096-.0633c.8518-.5536 1.7525-1.3418 2.4657-2.1627 1.5179-1.7429 2.4963-3.868 2.8247-6.134.0961-.6591.1078-.854.1078-1.7475 0-.8937-.012-1.0884-.1078-1.7476-.6522-4.506-3.8592-8.2919-8.2087-9.6945-.7672-.2487-1.5836-.42-2.4985-.5232-.169-.0176-1.0835-.0366-1.6123-.037zm4.0685 7.217c.3473 0 .4082.0053.4857.047.1127.0562.204.1642.237.2767.0186.061.0234 1.3653.0186 4.3044l-.0067 4.2175-.7436-1.14-.7461-1.14v-3.066c0-1.982.0093-3.0963.0234-3.1502.0375-.1313.1196-.2346.2323-.2955.0961-.0494.1313-.054.4997-.054z" />
		</g>
		<rect id="XMLID_44_" x="541.6" y="6.2" class="st2" width="208.7" height="112.7" />
		<path id="XMLID_79_" class="st5" d="M646.3,20.5l77.8,16.9c13.5,2.9,26.8-5.6,29.7-19.1l0,0c2.9-13.5-5.6-26.8-19.1-29.7
		l-77.8-16.9c-13.5-2.9-26.8,5.6-29.7,19.1l0,0C624.2,4.3,632.8,17.6,646.3,20.5z" />
		<path id="XMLID_42_" class="st5" d="M641,21l-77.8,16.9c-13.5,2.9-26.8-5.6-29.7-19.1l0,0c-2.9-13.5,5.6-26.8,19.1-29.7l77.8-16.9
		c13.5-2.9,26.8,5.6,29.7,19.1l0,0C663,4.7,654.5,18.1,641,21z" />
		<circle id="XMLID_38_" class="st5" cx="744.1" cy="34.5" r="34.9" />
		<circle id="XMLID_9_" class="st5" cx="539.2" cy="36.6" r="35" />
		<path id="XMLID_37_" class="st6" d="M800.2,127.4l-19.9-80.6c-3.9-16-20.1-25.7-36.1-21.8l0,0c-16,3.9-25.7,20.1-21.8,36.1
		l19.9,80.6c3.9,16,20.1,25.7,36.1,21.8l0,0C794.4,159.5,804.2,143.3,800.2,127.4z" />
		<path id="XMLID_17_" class="st6" d="M485.8,128.3l19.9-80.5c4-16,20.1-25.7,36.1-21.8l0,0c16,4,25.7,20.1,21.8,36.1l-19.9,80.5
		c-4,16-20.1,25.7-36.1,21.8l0,0C491.5,160.4,481.8,144.3,485.8,128.3z" />
		<path id="XMLID_45_" class="st2" d="M640.8,21L563,37.9c-13.5,2.9-26.8-5.6-29.7-19.1l0,0c-2.9-13.5,5.6-26.8,19.1-29.7l77.8-16.9
		c13.5-2.9,26.8,5.6,29.7,19.1l0,0C662.8,4.7,654.3,18.1,640.8,21z" />
		<rect id="XMLID_164_" x="559.8" y="45.1" class="st3" width="80.7" height="86.1" />
		<g id="XMLID_159_">
			<circle id="XMLID_116_" class="st3" cx="544.8" cy="45.1" r="35" />
			<path id="XMLID_110_" class="st3" d="M505.4,80.1l10.1-40.8c1.6-6.6,8.3-10.6,14.8-8.9l34.1,8.4c6.6,1.6,10.6,8.3,8.9,14.8
			l-10.1,40.8c-1.6,6.6-8.3,10.6-14.8,8.9l-34.1-8.4C507.8,93.3,503.8,86.6,505.4,80.1z" />
		</g>
		<path id="XMLID_64_" class="st2" d="M646.1,20.5l77.8,16.9c13.5,2.9,26.8-5.6,29.7-19.1l0,0c2.9-13.5-5.6-26.8-19.1-29.7
		l-77.8-16.9c-13.5-2.9-26.8,5.6-29.7,19.1l0,0C624,4.3,632.6,17.6,646.1,20.5z" />
		<g id="XMLID_83_">
			<circle id="XMLID_155_" class="st3" cx="744.6" cy="45.1" r="35" />
			<path id="XMLID_113_" class="st3" d="M784,80.1l-10.1-40.8c-1.6-6.6-8.3-10.6-14.8-8.9L725,38.8c-6.6,1.6-10.6,8.3-8.9,14.8
			l10.1,40.8c1.6,6.6,8.3,10.6,14.8,8.9l34.1-8.4C781.6,93.3,785.6,86.6,784,80.1z" />
		</g>
		<circle id="XMLID_80_" class="st2" cx="743.9" cy="34.5" r="34.9" />
		<circle id="XMLID_77_" class="st2" cx="539" cy="36.6" r="35" />
		<circle id="XMLID_65_" class="st7" cx="539" cy="36.6" r="35" />
		<path id="XMLID_91_" class="st2" d="M785.5,68.4l-8.8-35.8c-2-8.1-10.2-13.1-18.4-11.1l-28.4,7c-8.1,2-13.1,10.2-11.1,18.4
		l8.8,35.8c2,8.1,10.2,13.1,18.4,11.1l28.4-7C782.5,84.8,787.5,76.5,785.5,68.4z" />
		<path id="XMLID_68_" class="st2" d="M499.6,71.5l10.1-40.8c1.6-6.6,8.3-10.6,14.8-8.9l34.1,8.4c6.6,1.6,10.6,8.3,8.9,14.8
		l-10.1,40.8c-1.6,6.6-8.3,10.6-14.8,8.9l-34.1-8.4C502,84.7,498,78.1,499.6,71.5z" />
		<g id="XMLID_81_">
			<polygon id="XMLID_184_" class="st3" points="501,65.9 533.7,74.8 500.4,68.8 		" />
		</g>
		<path id="XMLID_165_" class="st2" d="M643.3,69.3h-48.7c-8.2,0-14.8-6.6-14.8-14.8v-8.8c0-8.2,6.6-14.8,14.8-14.8h48.7
		c8.2,0,14.8,6.6,14.8,14.8v8.8C658.2,62.7,651.5,69.3,643.3,69.3z" />
		<g id="XMLID_70_">
			<polygon id="XMLID_181_" class="st3" points="785.7,69.1 752.3,75.1 785,66.2 		" />
		</g>
		<path id="XMLID_167_" class="st3" d="M786.1,93.1l-54.3,12.4c-3.9,0.9-7.8-1.6-8.7-5.5l-1.8-8c-0.9-3.9,1.6-7.8,5.5-8.7l54.3-12.4
		c3.9-0.9,7.8,1.6,8.7,5.5l1.8,8C792.5,88.3,790,92.2,786.1,93.1z" />
		<path id="XMLID_150_" class="st2" d="M790,90.8l-54.3,12.4c-3.9,0.9-7.8-1.6-8.7-5.5l-1.8-8c-0.9-3.9,1.6-7.8,5.5-8.7L785,68.6
		c3.9-0.9,7.8,1.6,8.7,5.5l1.8,8C796.3,86,793.9,89.9,790,90.8z" />
		<path id="XMLID_149_" class="st2" d="M552.2,103.8l-56.9-13c-3.4-0.8-5.5-4.1-4.7-7.5l2.3-10c0.8-3.4,4.1-5.5,7.5-4.7l56.9,13
		c3.4,0.8,5.5,4.1,4.7,7.5l-2.3,10C558.9,102.4,555.5,104.5,552.2,103.8z" />
		<g id="XMLID_87_">
			<polygon id="XMLID_178_" class="st3" points="560.9,96.1 528.2,87.1 561.6,93.1 		" />
		</g>
		<g id="XMLID_3_">
			<path id="XMLID_172_" class="st3"
				d="M670.3,9.3c0,0-0.2,0.3-0.5,0.7s-0.9,1-1.6,1.7c-0.7,0.7-1.5,1.4-2.5,2c-0.5,0.3-1,0.7-1.5,1
			s-1.1,0.6-1.7,0.9c-0.6,0.3-1.2,0.5-1.7,0.8c-0.6,0.3-1.2,0.4-1.7,0.6c-1.1,0.3-2.2,0.6-3.2,0.7c-0.9,0.1-1.7,0.2-2.3,0.2
			c-0.6,0-0.9,0-0.9,0s0.3-0.1,0.8-0.3s1.2-0.4,2.1-0.7c0.4-0.2,0.9-0.3,1.4-0.5s1-0.4,1.5-0.6c1-0.5,2.2-0.9,3.2-1.5
			c0.5-0.3,1.1-0.5,1.6-0.8s1-0.6,1.5-0.8c1-0.6,1.9-1.1,2.7-1.6c0.8-0.5,1.4-0.9,1.9-1.2C670,9.4,670.3,9.3,670.3,9.3z" />
		</g>
		<g id="XMLID_117_">
			<path id="XMLID_27_" class="st7" d="M610.6-3.4" />
		</g>
		<g id="XMLID_140_">
			<path id="XMLID_23_" class="st3" d="M625.4,14.6c0,0-0.4-0.1-1-0.4c-0.3-0.1-0.7-0.3-1.1-0.5s-0.9-0.4-1.4-0.7s-1-0.6-1.6-0.9
			c-0.6-0.3-1.1-0.7-1.7-1.2c-0.5-0.5-1.1-0.9-1.7-1.4s-1.1-1-1.6-1.6s-1-1.1-1.5-1.7c-0.5-0.6-0.9-1.2-1.3-1.8
			c-0.4-0.6-0.7-1.2-1-1.8c-0.3-0.6-0.6-1.1-0.8-1.6c-0.2-0.5-0.4-1-0.6-1.4s-0.3-0.8-0.4-1.1c-0.2-0.6-0.3-1-0.3-1s0.2,0.3,0.5,0.9
			c0.3,0.6,0.8,1.3,1.4,2.3c0.3,0.5,0.6,0.9,1,1.5c0.3,0.5,0.8,1,1.2,1.6c0.8,1.1,1.8,2.2,2.7,3.3c0.5,0.5,1,1.1,1.5,1.6
			s1,1,1.5,1.4s1,0.9,1.5,1.3c0.5,0.4,0.9,0.8,1.4,1.1c0.9,0.7,1.6,1.2,2.1,1.6C625.1,14.4,625.4,14.6,625.4,14.6z" />
		</g>
		<g id="XMLID_2_">
			<path id="XMLID_25_" class="st3" d="M680-21.2c0,0,0.1,0.8,0.1,1.9c0,1.1,0,2.7-0.2,4.2c-0.2,1.5-0.5,3-0.8,4.1
			c-0.2,0.5-0.3,1-0.4,1.3s-0.2,0.5-0.2,0.5s0-0.2,0.1-0.5c0.1-0.3,0.1-0.8,0.2-1.3c0.1-1.1,0.2-2.6,0.1-4c-0.1-1.5-0.2-2.9-0.4-4
			c-0.2-1.1-0.4-1.7-0.4-1.7L680-21.2z" />
		</g>
		<g id="XMLID_75_">
			<g id="XMLID_350_">
				<g id="rightArm">

					<animateTransform attributeType="xml" attributeName="transform" type="rotate"
						values="0 515 135;-20 515 135;0 515 135" to="" dur="0.2s" repeatCount="indefinite" calcMode="spline"
						keySplines="0.4 0 0.2 1; 0.4 0 0.2 1" />
					<path id="XMLID_362_" class="st5" d="M599.9,171.1h-80.2c-20.8,0-37.7-16.9-37.7-37.7l0,0c0-20.8,16.9-37.7,37.7-37.7h80.2
					c20.8,0,37.7,16.9,37.7,37.7l0,0C637.6,154.2,620.7,171.1,599.9,171.1z" />
					<path id="XMLID_356_" class="st6" d="M607.2,153.7h-94.7c-11.2,0-21.5-4.2-29.3-11c4.1,16.3,18.9,28.4,36.5,28.4h80.2
					c17.6,0,32.4-12.1,36.5-28.4C628.6,149.5,618.4,153.7,607.2,153.7z" />
				</g>
				<g id="XMLID_359_">
					<animateTransform attributeType="xml" attributeName="transform" type="rotate"
						values="20 770 135;0 770 135;20 770 135" to="" dur="0.2s" repeatCount="indefinite" calcMode="spline"
						keySplines="0.4 0 0.2 1; 0.4 0 0.2 1" />
					<path id="XMLID_360_" class="st5" d="M688.1,171.1h80.2c20.8,0,37.7-16.9,37.7-37.7l0,0c0-20.8-16.9-37.7-37.7-37.7h-80.2
					c-20.8,0-37.7,16.9-37.7,37.7l0,0C650.4,154.2,667.3,171.1,688.1,171.1z" />
					<path id="XMLID_358_" class="st6" d="M775.5,153.7h-94.7c-11.2,0-21.5-4.2-29.3-11c4.1,16.3,18.9,28.4,36.5,28.4h80.2
					c17.6,0,32.4-12.1,36.5-28.4C797,149.5,786.8,153.7,775.5,153.7z" />
				</g>
			</g>
		</g>
		<path id="XMLID_174_" class="st6" d="M691.1-79.1L691.1-79.1c-3.2,0-5.7,2.6-5.7,5.7v7.3c0,3.2,2.6,5.7,5.7,5.7l0,0
		c3.2,0,5.7-2.6,5.7-5.7v-7.3C696.8-76.5,694.3-79.1,691.1-79.1z" />
		<path id="XMLID_1_" class="st6" d="M610.9-18.5v-41.2c0-18.3,14.8-33.1,33.1-33.1l0,0c18.3,0,33.1,14.8,33.1,33.1v41.2
		c0,18.3-14.8,33.1-33.1,33.1l0,0C625.7,14.6,610.9-0.3,610.9-18.5z" />
		<path id="XMLID_180_" class="st8" d="M644.2,11.1h-0.3c-17.2,0-31.3-13.1-33-29.9v0.2c0,18.3,14.8,33.1,33.1,33.1l0,0
		c18.3,0,33.1-14.8,33.1-33.1v-0.2C675.5-2,661.4,11.1,644.2,11.1z" />
		<path id="XMLID_138_" class="st5" d="M600.6-43.2v-44.2c0-24,19.4-43.4,43.4-43.4l0,0c24,0,43.4,19.4,43.4,43.4v44.2
		c0,18.5-15.3,36.4-33.4,36.4h-20C617.5-6.8,600.6-27.5,600.6-43.2z" />
		<path id="XMLID_102_" class="st6" d="M644-130.8L644-130.8c-2.2,0-4.4,0.2-6.6,0.5c20.8,3.2,36.8,21.2,36.8,42.9v44.2
		c0,18.5-15.3,36.4-33.4,36.4H654c18.1,0,33.4-17.9,33.4-36.4v-44.2C687.4-111.3,668-130.8,644-130.8z" />
		<path id="XMLID_132_" class="st9"
			d="M687.4-71.9c-10.5-2.6-12.3-13.5-12.3-13.5v-23.7l7.5,2c3.1,5.9,4.8,12.7,4.8,19.8V-71.9z" />
		<path id="XMLID_129_" class="st10" d="M661.5-81.4h-35.1c-13.8,0-25-11.2-25-25l0,0c0-13.8,11.2-25,25-25h35.1
		c13.8,0,25,11.2,25,25l0,0C686.5-92.6,675.4-81.4,661.5-81.4z" />
		<path id="XMLID_128_" class="st10" d="M601.5-106.4c0-23.5,19-35.5,42.5-35.5s42.5,12,42.5,35.5s-19,5.8-42.5,5.8
		S601.5-82.9,601.5-106.4z" />
		<g id="XMLID_147_">
			<path id="XMLID_137_" class="st11" d="M615.6-127c0,0,0.2-0.2,0.4-0.6c0.3-0.3,0.7-0.8,1.3-1.4c1.1-1.1,2.7-2.4,4.5-3.5
			s3.7-1.9,5.1-2.4c0.7-0.3,1.4-0.4,1.8-0.5c0.4-0.1,0.7-0.2,0.7-0.2s-0.2,0.1-0.6,0.3s-1,0.5-1.6,0.9c-1.3,0.7-3.1,1.7-4.8,2.7
			c-1.7,1-3.4,2.2-4.6,3.1C616.4-127.6,615.6-127,615.6-127z" />
		</g>
		<g id="XMLID_209_">
			<path id="XMLID_134_" class="st11" d="M603.9-105.1c0,0,0-0.5-0.1-1.5c0-0.5,0-1.1,0-1.7c0-0.7,0-1.4,0.1-2.2
			c0.1-0.8,0.2-1.7,0.4-2.6c0.1-0.5,0.2-0.9,0.3-1.4s0.3-1,0.4-1.5c0.1-0.5,0.3-1,0.5-1.5c0.2-0.5,0.3-1,0.6-1.5
			c0.2-0.5,0.4-1,0.7-1.5c0.2-0.5,0.5-1,0.8-1.5s0.5-1,0.8-1.4c0.3-0.5,0.6-0.9,0.9-1.4c0.3-0.4,0.6-0.9,1-1.3
			c0.3-0.4,0.7-0.8,1-1.2c0.7-0.8,1.4-1.5,2.1-2.1s1.4-1.2,2.1-1.7c0.3-0.2,0.6-0.5,0.9-0.7c0.3-0.2,0.6-0.4,0.9-0.6
			c0.6-0.4,1-0.7,1.5-0.9c0.8-0.5,1.3-0.7,1.3-0.7s-0.4,0.3-1.2,0.9c-0.4,0.3-0.8,0.6-1.4,1c-0.5,0.4-1.1,0.9-1.7,1.4
			s-1.2,1.1-1.9,1.8c-0.3,0.3-0.6,0.7-1,1c-0.3,0.4-0.7,0.7-1,1.1c-0.3,0.4-0.6,0.8-1,1.2c-0.3,0.4-0.6,0.9-0.9,1.3
			s-0.6,0.9-0.9,1.3c-0.3,0.5-0.6,0.9-0.8,1.4c-0.2,0.5-0.5,0.9-0.7,1.4c-0.2,0.5-0.4,1-0.7,1.5c-0.4,1-0.8,1.9-1.1,2.9
			c-0.2,0.5-0.3,1-0.4,1.4c-0.1,0.5-0.2,0.9-0.4,1.4c-0.3,0.9-0.4,1.8-0.5,2.6c-0.2,0.8-0.2,1.5-0.3,2.2s-0.1,1.2-0.2,1.7
			C603.9-105.7,603.9-105.1,603.9-105.1z" />
		</g>
		<g id="XMLID_125_">
			<path id="XMLID_127_" class="st2" d="M642-141v-6.1c0-1.1,0.9-2,2-2l0,0c1.1,0,2,0.9,2,2v6.1c0,1.1-0.9,2-2,2l0,0
			C642.9-138.9,642-139.9,642-141z" />
			<path id="XMLID_72_" class="st3" d="M644-149.1c-1.1,0-2,0.9-2,2v5.3c0.7,0.1,1.3,0.2,2,0.2s1.4-0.1,2-0.2v-5.3
			C646-148.2,645.1-149.1,644-149.1z" />
			<circle id="XMLID_126_" class="st10" cx="644" cy="-154.5" r="11.3" />
			<path id="XMLID_41_" class="st12" d="M635.1-147.5c3.4,1.2,9.2,0.6,12.8-2c3-2.2,4.8-7,5-12c3.9,4.9,3,12-1.9,15.9
			C646.1-141.7,638.9-142.6,635.1-147.5z" />
			<g id="XMLID_121_">
				<path id="XMLID_118_" class="st11" d="M636.1-151.1c0,0-0.1-0.3-0.2-0.8c0-0.3-0.1-0.5-0.1-0.9c0-0.4-0.1-0.7,0-1.2
				c0-0.2,0-0.5,0.1-0.7c0-0.2,0.1-0.5,0.1-0.7c0.1-0.5,0.3-1,0.5-1.6c0.2-0.5,0.5-1,0.8-1.6c0.3-0.5,0.7-1,1.1-1.4
				c0.4-0.4,0.9-0.8,1.4-1.2c0.5-0.4,1-0.6,1.5-0.9c0.3-0.1,0.5-0.2,0.8-0.3c0.3-0.1,0.5-0.2,0.8-0.2c0.5-0.1,1-0.2,1.4-0.3
				c0.4,0,0.9-0.1,1.2,0c0.4,0,0.7,0,0.9,0.1c0.5,0.1,0.8,0.1,0.8,0.1s-0.3,0-0.8,0.1c-0.3,0-0.5,0.1-0.9,0.1
				c-0.3,0-0.7,0.2-1.1,0.2c-0.4,0.1-0.8,0.3-1.3,0.4c-0.2,0.1-0.4,0.2-0.7,0.3c-0.2,0.1-0.4,0.2-0.7,0.4c-0.5,0.3-0.9,0.5-1.3,0.9
				c-0.4,0.3-0.8,0.7-1.2,1.1c-0.4,0.4-0.7,0.8-1,1.3s-0.6,0.9-0.8,1.4s-0.4,0.9-0.6,1.4c-0.2,0.5-0.3,0.9-0.4,1.3
				c-0.1,0.4-0.1,0.8-0.2,1.2c-0.1,0.3,0,0.7,0,0.9C636.1-151.4,636.1-151.1,636.1-151.1z" />
			</g>
			<g id="XMLID_148_">
				<path id="XMLID_111_" class="st11" d="M635-157.5c0,0,0-0.5,0.2-1.2c0.1-0.4,0.3-0.7,0.5-1.1c0.2-0.4,0.5-0.8,0.8-1.2
				s0.7-0.7,1.1-1c0.4-0.3,0.7-0.5,1.1-0.6c0.7-0.3,1.2-0.3,1.2-0.3s-0.4,0.4-0.9,0.8c-0.5,0.5-1.1,1.1-1.7,1.8
				c-0.6,0.7-1.2,1.4-1.6,1.9C635.3-157.9,635-157.5,635-157.5z" />
			</g>
		</g>
		<path id="XMLID_135_" class="st9"
			d="M600.6-71.9c10.5-2.6,12.3-13.5,12.3-13.5v-23.7l-7.5,2c-3.1,5.9-4.8,12.7-4.8,19.8V-71.9z" />
		<path id="XMLID_99_" class="st10" d="M671.4-83.4c-14.9,6.3-44.8,8.8-44.8,8.8s12.1-1.4,18.7-6.8L671.4-83.4z" />
		<path id="XMLID_84_" class="st10" d="M648.2-82.2c-8.5,3.2-25.3,3.7-25.3,3.7s6.8-0.4,10.7-3.3L648.2-82.2z" />
		<g id="XMLID_67_">
			<g>
				<path id="rightEyebrow" class="st10" d="M621-67.7h-11.8c-1.7,0-3.1-1.4-3.1-3.1l0,0c0-1.7,1.4-3.1,3.1-3.1H621
			c1.7,0,3.1,1.4,3.1,3.1l0,0C624.2-69.1,622.8-67.7,621-67.7z">
					<animateTransform attributeType="xml" attributeName="transform" type="translate"
						values="0 0;0 0;0 0;0 -2;0 -2;0 -2;0 0;0 0;0 0;0 0" dur="3s" repeatCount="indefinite" />
				</path>
				<circle id="rightEye" class="st13" cx="614.4" cy="-60.8" r="4.5" />
				<animateTransform attributeType="xml" attributeName="transform" type="translate"
					values="0 0;0 0;0 0;0 -5;0 -5;0 -5;0 0;0 0;0 0;0 0" dur="3s" repeatCount="indefinite" />
			</g>
			<g>
				<path id="leftEyebrow" class="st10" d="M681.2-67.3h-11.6c-1.7,0-3.1-1.4-3.1-3.1l0,0c0-1.7,1.4-3.1,3.1-3.1h11.6
			c1.7,0,3.1,1.4,3.1,3.1l0,0C684.3-68.7,682.9-67.3,681.2-67.3z">
					<animateTransform attributeType="xml" attributeName="transform" type="translate"
						values="0 0;0 0;0 0;0 -2;0 -2;0 -2;0 0;0 0;0 0;0 0" dur="3s" repeatCount="indefinite" />
				</path>
				<circle id="leftEye" class="st13" cx="675.1" cy="-60.8" r="4.5" />
				<animateTransform attributeType="xml" attributeName="transform" type="translate"
					values="0 0;0 0;0 0;0 -5;0 -5;0 -5;0 0;0 0;0 0;0 0" dur="3s" repeatCount="indefinite" />
			</g>
			<g>
				<path id="XMLID_122_" class="st2" d="M634.6-53.3h18.8c0,5.2-4.2,9.4-9.4,9.4S634.6-48.1,634.6-53.3z" />
				<animateTransform attributeType="xml" attributeName="transform" type="translate"
					values="0 0;0 0;0 0;0 -5;0 -5;0 -5;0 0;0 0;0 0;0 0" dur="3s" repeatCount="indefinite" />
			</g>


		</g>
		<path id="XMLID_281_" class="st5" d="M597.3-79.1L597.3-79.1c-3.2,0-5.7,2.6-5.7,5.7v7.3c0,3.2,2.6,5.7,5.7,5.7l0,0
		c3.2,0,5.7-2.6,5.7-5.7v-7.3C603-76.5,600.4-79.1,597.3-79.1z" />
		<path id="XMLID_176_" class="st8" d="M691.8-73.6c-2,2.9-1.5,5.7,0.9,7.9c-2.2,0.2-4.1-1.3-4.4-3.5
		C688.1-71.4,689.7-73.3,691.8-73.6z" />
		<path id="XMLID_101_" class="st8" d="M595.9-73.6c2,2.9,1.5,5.7-0.9,7.9c2.2,0.2,4.1-1.3,4.4-3.5C599.7-71.4,598.1-73.4,595.9-73.6
		z" />
		<g id="XMLID_36_">
			<path id="XMLID_32_" class="st14" d="M715.8,66.9H572.2c-3.2,0-5.7,2.6-5.7,5.7l10.9,83.3c0,3.2,2.6,5.7,5.7,5.7h121.7
			c3.2,0,5.7-2.6,5.7-5.7l11.1-83.3C721.6,69.5,719,66.9,715.8,66.9z" />
			<path id="XMLID_19_" class="st15" d="M715.8,71.1H572.7c-3.2,0-5.7,2.6-5.7,5.7l10.4,79.1c0,3.2,2.6,5.7,5.7,5.7h121.7
			c3.2,0,5.7-2.6,5.7-5.7l11.1-79.1C721.6,73.6,719,71.1,715.8,71.1z" />
			<path id="XMLID_31_" class="st15" d="M715.8,71.1H572.7c-3.2,0-5.7,2.6-5.7,5.7l10.4,79.1c0,3.2,2.6,5.7,5.7,5.7h121.7
			c3.2,0,5.7-2.6,5.7-5.7l11.1-79.1C721.6,73.6,719,71.1,715.8,71.1z" />
			<path id="XMLID_35_" class="st16" d="M584,161.6h120c2.3,0,4.1,1.8,4.1,4.1v1.1c0,2.3-1.8,4.1-4.1,4.1H584c-2.3,0-4.1-1.8-4.1-4.1
			v-1.1C579.8,163.4,581.7,161.6,584,161.6z" />
			<path id="XMLID_73_" class="st17" d="M621.2,168.5h-4.3c-1.1,0-2.1-0.9-2.1-2.1l0,0c0-1.1,0.9-2.1,2.1-2.1h4.3
			c1.1,0,2.1,0.9,2.1,2.1l0,0C623.3,167.5,622.3,168.5,621.2,168.5z" />
			<path id="XMLID_94_" class="st17" d="M632.3,168.5H628c-1.1,0-2.1-0.9-2.1-2.1l0,0c0-1.1,0.9-2.1,2.1-2.1h4.3
			c1.1,0,2.1,0.9,2.1,2.1l0,0C634.3,167.5,633.4,168.5,632.3,168.5z" />
		</g>
		<path id="XMLID_39_" class="st18" d="M903.9,221.2H384.1c-10,0-18.1-8.1-18.1-18.1l0,0c0-10,8.1-18.1,18.1-18.1h519.7
		c10,0,18.1,8.1,18.1,18.1l0,0C922,213.1,913.9,221.2,903.9,221.2z" />
		<path id="XMLID_76_" class="st19" d="M686.2,221.2H464.8c-10,0-18.1-8.1-18.1-18.1l0,0c0-10,8.1-18.1,18.1-18.1h221.4
		c10,0,18.1,8.1,18.1,18.1l0,0C704.3,213.1,696.2,221.2,686.2,221.2z" />
		<path id="XMLID_71_" class="st20" d="M958.1,195H329.9c-6.6,0-12-5.4-12-12l0,0c0-6.6,5.4-12,12-12H958c6.6,0,12,5.4,12,12l0,0
		C970.1,189.6,964.7,195,958.1,195z" />
		<path id="XMLID_74_" class="st21" d="M655,195H496.9c-6.6,0-12-5.4-12-12l0,0c0-6.6,5.4-12,12-12H655c6.6,0,12,5.4,12,12l0,0
		C667,189.6,661.6,195,655,195z" />
		<path id="XMLID_168_" class="st22" d="M505.2,195H329.9c-6.6,0-12-5.4-12-12l0,0c0-6.6,5.4-12,12-12h175.3c6.6,0,12,5.4,12,12l0,0
		C517.2,189.6,511.8,195,505.2,195z" />
		<g id="XMLID_114_">
			<circle id="XMLID_288_" class="st23" cx="841.3" cy="140.1" r="19.1" />
			<circle id="XMLID_305_" class="st24" cx="841.3" cy="140.1" r="19.1" />
			<path id="XMLID_286_" class="st2" d="M841.8,103.9h-43.7c-2.6,0-4.7,2.1-4.7,4.7v57.7c0,2.6,2.1,4.7,4.7,4.7h43.7
			c2.6,0,4.7-2.1,4.7-4.7v-57.7C846.4,106,844.3,103.9,841.8,103.9z" />
			<g id="XMLID_290_">
				<circle id="XMLID_300_" class="st25" cx="819.9" cy="137.4" r="2.6" />
				<g id="XMLID_292_">
					<ellipse id="XMLID_297_" class="st26" cx="819.9" cy="137.4" rx="17.6" ry="6.7" />

					<ellipse id="XMLID_296_" transform="matrix(-0.5 -0.866 0.866 -0.5 1110.8185 916.1511)" class="st26" cx="819.9"
						cy="137.4" rx="17.6" ry="6.7" />

					<ellipse id="XMLID_294_" transform="matrix(0.5 -0.866 0.866 0.5 290.9738 778.7439)" class="st26" cx="819.9"
						cy="137.4" rx="17.6" ry="6.7" />
				</g>
			</g>
			<path id="XMLID_293_" class="st27"
				d="M846.4,166.3v-57.7c0-2.6-2.1-4.7-4.7-4.7h-4.8v67h4.8C844.3,171,846.4,168.9,846.4,166.3z" />
		</g>
		<g id="XMLID_7_">
			<g id="XMLID_14_">
				<path id="XMLID_43_" class="st28" d="M641.5,117.3h1.9c0.7,0,1.2-0.1,1.6-0.5c0.4-0.3,0.5-0.7,0.5-1.3c0-0.6-0.2-1-0.5-1.3
				c-0.4-0.3-0.9-0.4-1.6-0.4h-0.9c-0.6,0-1,0.4-1,1V117.3 M643.5,110h-4.3h-1c-0.6,0-1,0.4-1,1v1v9.8v1c0,0.6,0.4,1,1,1h1h2.3h2
				h0.9h1h2.4h1.9c0.8,0,1.3-0.9,0.8-1.6l-1.1-1.6l-1.1-1.6c0.2-0.2,0.3-0.4,0.4-0.5c0.6-0.9,0.9-1.9,0.9-3c0-1.1-0.3-2.1-0.8-3
				c-0.6-0.9-1.3-1.5-2.3-2C645.7,110.2,644.6,110,643.5,110L643.5,110z" />
			</g>
			<g id="XMLID_5_">
				<g>
					<path id="XMLID_57_" class="st29" d="M645.5,121.8l-1.9-2.7h-0.1h-2v2.7h-2.3V112h4.3c0.9,0,1.6,0.1,2.3,0.4s1.1,0.7,1.5,1.2
					c0.3,0.5,0.5,1.2,0.5,1.9s-0.2,1.4-0.5,1.9c-0.4,0.5-0.9,0.9-1.5,1.2l2.2,3.2H645.5z M644.9,114.3c-0.4-0.3-0.9-0.4-1.6-0.4
					h-1.9v3.4h1.9c0.7,0,1.2-0.1,1.6-0.5c0.4-0.3,0.5-0.7,0.5-1.3C645.5,115,645.3,114.6,644.9,114.3z" />
				</g>
			</g>
		</g>
	</g>
</svg>